# xmcd
#
# Track frame offsets: 
#        187
#        102917
#        123235
#        139862
#        160710
#        200645
#        253585
#        311365
#
# Disc length: 4500 seconds
#
# Revision: 17
# Processed by: cddbd v1.5.2PL0 Copyright (c) Steve Scherf et al.
# Submitted via: ExactAudioCopy v1.3
#
DISCID=67119208
DTITLE=Alfred Brendel - Piano Variations and Bagatelles
DYEAR=1961
DGENRE=Classical
TTITLE0=15 Variations And Fugue On A Theme From 'Prometheus', Op. 35 I
TTITLE0=n E Flat  Major ('Eroica Variations)
TTITLE1=Piano Sonata No.20 in G major Op.49 No.2 - I. Allegro non trop
TTITLE1=po
TTITLE2=Piano Sonata No.20 in G major Op.49 No.2 - II. Tempo di menuet
TTITLE2=to
TTITLE3=5 Variations On 'Rule Britannia' In D major WoO 79
TTITLE4=7 Variations On 'God Save The King' In C Major WoO 78
TTITLE5=12 Variations On A Russian Dance From Wranitsky's Ballet 'Das 
TTITLE5=Waldmädchen' in A, WoO 71
TTITLE6=6 Variations On An Original Theme In F Major Op.34
TTITLE7=6 Variations On A Theme From 'Ruins of Athens' In D Major Op.7
TTITLE7=6
EXTD=Alfred Brendel, piano. Recorded between 1961 and 1964. Brilliant 
EXTD=Classics YEAR: 1961
EXTT0=
EXTT1=
EXTT2=
EXTT3=
EXTT4=
EXTT5=
EXTT6=
EXTT7=
PLAYORDER=
